<?xml version="1.0" encoding="utf-8"?>
<svg viewBox="316.545 282.42 25.119 40.496" xmlns="http://www.w3.org/2000/svg">
  <g transform="matrix(0.1, 0, 0, -0.1, 289.432434, 384.916718)" fill="#FFFFFF" stroke="none">
    <path d="M371 1017 c-13 -6 -31 -22 -39 -34 -14 -22 -13 -23 17 -23 38 0 41 -17 4 -22 -39 -4 -42 -28 -4 -28 17 0 31 -4 31 -10 0 -5 -14 -10 -31 -10 -38 0 -35 -24 4 -28 37 -4 34 -20 -4 -24 l-31 -3 22 -27 c17 -22 30 -28 60 -28 30 0 43 6 60 28 l22 27 -31 3 c-38 4 -41 20 -4 24 39 4 42 28 4 28 -17 0 -31 5 -31 10 0 6 14 10 31 10 38 0 35 24 -4 28 -37 5 -34 20 5 24 l32 3 -25 27 c-30 33 -57 41 -88 25z" style=""/>
    <path d="M274 886 c-9 -25 4 -81 27 -109 11 -14 35 -32 55 -39 31 -11 35 -16 32 -43 -3 -26 -8 -31 -38 -35 -23 -3 -36 -11 -38 -22 -3 -16 6 -18 88 -18 82 0 91 2 88 18 -2 12 -14 18 -41 20 -34 3 -37 5 -37 36 0 27 5 34 35 45 55 20 84 76 76 149 -3 28 -21 -1 -21 -33 0 -24 -9 -45 -29 -67 -24 -27 -36 -33 -71 -33 -35 0 -47 6 -71 33 -20 22 -29 43 -29 67 0 37 -16 56 -26 31z" style=""/>
  </g>
</svg>