<?xml version="1.0" encoding="utf-8"?>
<svg viewBox="150.815 192.533 109.887 40.496" xmlns="http://www.w3.org/2000/svg">
  <g transform="matrix(0.1, 0, 0, -0.1, 123.702103, 295.029053)" fill="#FFFFFF" stroke="none">
    <path d="M371 1017 c-13 -6 -31 -22 -39 -34 -14 -22 -13 -23 17 -23 38 0 41 -17 4 -22 -39 -4 -42 -28 -4 -28 17 0 31 -4 31 -10 0 -5 -14 -10 -31 -10 -38 0 -35 -24 4 -28 37 -4 34 -20 -4 -24 l-31 -3 22 -27 c17 -22 30 -28 60 -28 30 0 43 6 60 28 l22 27 -31 3 c-38 4 -41 20 -4 24 39 4 42 28 4 28 -17 0 -31 5 -31 10 0 6 14 10 31 10 38 0 35 24 -4 28 -37 5 -34 20 5 24 l32 3 -25 27 c-30 33 -57 41 -88 25z" style="fill: rgb(255, 255, 255);"/>
    <path d="M274 886 c-9 -25 4 -81 27 -109 11 -14 35 -32 55 -39 31 -11 35 -16 32 -43 -3 -26 -8 -31 -38 -35 -23 -3 -36 -11 -38 -22 -3 -16 6 -18 88 -18 82 0 91 2 88 18 -2 12 -14 18 -41 20 -34 3 -37 5 -37 36 0 27 5 34 35 45 55 20 84 76 76 149 -3 28 -21 -1 -21 -33 0 -24 -9 -45 -29 -67 -24 -27 -36 -33 -71 -33 -35 0 -47 6 -71 33 -20 22 -29 43 -29 67 0 37 -16 56 -26 31z" style="fill: rgb(255, 255, 255);"/>
    <path d="M610 825 c0 -37 4 -65 10 -65 6 0 10 11 10 24 0 23 5 25 48 28 44 3 47 5 50 32 4 36 -10 46 -70 46 l-48 0 0 -65z m95 25 c0 -10 -12 -16 -37 -18 -37 -3 -51 12 -31 32 13 13 68 2 68 -14z" style="fill: rgb(255, 255, 255);"/>
    <path d="M771 864 c-12 -15 -21 -32 -21 -39 0 -7 9 -24 21 -39 41 -52 129 -25 129 39 0 64 -88 91 -129 39z m93 -10 c9 -8 16 -22 16 -29 0 -18 -28 -45 -46 -45 -29 0 -54 21 -54 45 0 40 54 59 84 29z" style="fill: rgb(255, 255, 255);"/>
    <path d="M930 825 l0 -65 50 0 c57 0 90 24 90 65 0 41 -33 65 -90 65 l-50 0 0 -65z m91 35 c44 -24 9 -86 -44 -78 -23 3 -35 43 -23 74 6 16 39 18 67 4z" style="fill: rgb(255, 255, 255);"/>
    <path d="M1100 825 c0 -37 4 -65 10 -65 6 0 10 11 10 24 0 21 5 25 38 28 47 4 45 22 -3 26 -50 4 -40 26 13 30 62 5 51 22 -13 22 l-55 0 0 -65z" style="fill: rgb(255, 255, 255);"/>
    <path d="M1230 882 c0 -5 14 -21 30 -37 19 -19 30 -39 30 -57 0 -15 5 -28 10 -28 6 0 10 13 10 29 0 21 8 36 30 51 17 12 30 28 30 36 0 21 -10 17 -42 -13 l-28 -27 -28 27 c-29 27 -42 33 -42 19z" style="fill: rgb(255, 255, 255);"/>
  </g>
</svg>